<?xml version="1.0" standalone="no"?>
<!DOCTYPE svg PUBLIC "-//W3C//DTD SVG 20010904//EN"
 "http://www.w3.org/TR/2001/REC-SVG-20010904/DTD/svg10.dtd">
<svg version="1.0" xmlns="http://www.w3.org/2000/svg"
 width="594.000000pt" height="420.000000pt" viewBox="0 0 594.000000 420.000000"
 preserveAspectRatio="xMidYMid meet">

<g transform="translate(0.000000,420.000000) scale(0.100000,-0.100000)"
fill="#000000" stroke="none">
<path d="M1292 2293 c-35 -17 -72 -76 -72 -114 0 -36 32 -90 64 -110 35 -22
92 -25 99 -6 4 10 6 10 6 0 1 -10 38 -13 151 -13 142 0 150 -1 161 -21 8 -16
8 -28 0 -45 -10 -23 -16 -24 -103 -25 -51 0 -114 0 -140 1 l-48 1 0 -40 0 -41
146 0 c163 0 204 11 229 61 18 34 19 98 3 133 -6 14 -30 35 -53 46 -37 18 -61
20 -217 20 -143 0 -178 3 -188 15 -15 19 -5 65 15 65 8 0 15 6 15 13 0 9 2 9
8 1 5 -8 71 -12 215 -13 l207 -1 0 45 0 45 -209 0 -210 0 -4 -32 -4 -33 -1 33
c-2 37 -18 41 -70 15z"/>
<path d="M2020 2301 c0 -5 7 -14 15 -21 13 -10 15 -9 15 9 0 12 -6 21 -15 21
-8 0 -15 -4 -15 -9z"/>
<path d="M2060 2281 c0 -29 21 -56 34 -43 4 4 6 2 4 -4 -1 -6 29 -40 67 -76
l70 -66 3 55 c3 56 3 57 -50 110 -51 52 -81 65 -91 41 -4 -10 -6 -10 -6 0 -1
6 -8 12 -16 12 -10 0 -15 -10 -15 -29z"/>
<path d="M2443 2304 c-7 -3 -10 -20 -8 -42 4 -30 3 -32 -3 -9 l-7 28 -67 -62
c-59 -53 -68 -66 -70 -97 -1 -32 -2 -31 -7 12 -8 70 -31 73 -32 4 -1 -80 2
-252 4 -254 1 -1 20 -4 42 -5 l40 -4 2 45 c1 25 2 76 2 114 1 38 4 66 8 63 10
-10 54 34 46 46 -3 6 -1 7 4 4 6 -4 36 17 68 46 32 28 70 64 86 78 16 14 29
29 29 32 0 8 -119 8 -137 1z m-96 -146 c-3 -7 -5 -2 -5 12 0 14 2 19 5 13 2
-7 2 -19 0 -25z"/>
<path d="M3942 2152 c-1 -106 -6 -161 -12 -157 -6 4 -10 -15 -10 -48 0 -50 2
-55 24 -61 45 -11 58 2 53 53 -2 25 -12 73 -22 106 -9 33 -20 107 -24 165 l-8
105 -1 -163z"/>
<path d="M3960 2231 c0 -51 9 -112 24 -172 14 -52 26 -110 28 -129 2 -19 4 60
4 175 0 151 -2 182 -6 110 l-6 -100 -2 98 c-2 90 -3 97 -22 97 -18 0 -20 -7
-20 -79z"/>
<path d="M4517 2303 c-4 -3 -8 -31 -8 -62 -2 -53 -2 -54 -8 -16 l-6 40 -22
-32 c-13 -17 -23 -42 -23 -55 0 -13 -3 -18 -8 -12 -9 15 -182 -238 -182 -266
0 -17 7 -20 39 -20 33 0 43 5 62 31 12 17 28 52 35 77 8 26 12 35 10 20 -2
-16 -2 -28 -1 -28 5 0 75 110 75 118 0 4 14 24 32 44 l31 37 34 -47 33 -47 0
78 c0 57 -5 85 -17 105 l-18 26 -6 -69 -5 -70 -2 78 c-2 67 -4 77 -20 77 -10
0 -22 -3 -25 -7z m-88 -212 c-7 -28 -15 -49 -17 -46 -2 2 2 27 9 54 7 28 15
49 17 46 2 -2 -2 -27 -9 -54z"/>
<path d="M4621 2145 c0 -55 4 -86 14 -99 14 -18 15 -13 15 55 -1 45 -6 84 -15
99 -13 23 -14 19 -14 -55z"/>
<path d="M4658 2086 c-3 -69 -1 -79 20 -101 21 -23 18 -31 -10 -26 -5 0 -8
-16 -8 -38 l0 -39 75 -1 c63 -1 76 1 84 17 8 15 1 32 -38 88 -26 38 -63 93
-83 123 l-36 53 -4 -76z m83 -173 c-12 -20 -14 -14 -5 12 4 9 9 14 11 11 3 -2
0 -13 -6 -23z"/>
<path d="M3793 2062 c0 -23 4 -39 8 -35 4 5 4 24 -1 43 l-9 35 2 -43z"/>
<path d="M3859 2047 c8 -10 9 -17 3 -17 -13 0 14 -89 34 -110 12 -12 14 -6 13
40 0 50 -3 57 -32 80 -18 13 -26 17 -18 7z"/>
<path d="M3834 1989 c-3 -6 1 -17 10 -25 9 -8 12 -9 7 -3 -5 6 -7 18 -4 25 6
17 -3 19 -13 3z"/>
<path d="M1240 1920 l0 -40 60 0 60 0 0 40 0 40 -60 0 -60 0 0 -40z"/>
<path d="M1370 1920 c0 -29 4 -40 15 -40 11 0 15 11 15 40 0 29 -4 40 -15 40
-11 0 -15 -11 -15 -40z"/>
<path d="M4567 1929 c32 -54 43 -57 43 -10 0 39 -1 41 -31 41 l-30 0 18 -31z"/>
<path d="M4620 1920 c0 -29 4 -40 15 -40 11 0 15 11 15 40 0 29 -4 40 -15 40
-11 0 -15 -11 -15 -40z"/>
<path d="M2666 1901 c-4 -7 -5 -15 -2 -18 9 -9 19 4 14 18 -4 11 -6 11 -12 0z"/>
<path d="M4260 1830 c0 -5 5 -10 10 -10 6 0 10 5 10 10 0 6 -4 10 -10 10 -5 0
-10 -4 -10 -10z"/>
<path d="M4295 1831 c-6 -11 9 -23 19 -14 9 9 7 23 -3 23 -6 0 -12 -4 -16 -9z"/>
<path d="M4426 1821 c-4 -7 -5 -15 -2 -18 9 -9 19 4 14 18 -4 11 -6 11 -12 0z"/>
<path d="M4470 1766 c0 -37 5 -60 16 -71 9 -9 17 -15 19 -13 1 2 0 33 -3 71
-3 48 -8 67 -18 67 -10 0 -14 -15 -14 -54z"/>
<path d="M4727 1781 c-36 -44 -37 -77 -1 -38 l26 29 29 -28 c35 -33 37 -51 7
-57 -13 -2 -1 -5 25 -6 l48 -1 -19 28 c-11 15 -35 45 -54 66 l-34 39 -27 -32z"/>
<path d="M4255 1788 c-21 -13 -20 -75 3 -86 9 -5 43 -13 75 -16 48 -6 57 -5
57 8 0 9 -8 16 -19 16 -21 0 -31 19 -31 59 0 24 -4 27 -35 27 -19 0 -41 -4
-50 -8z m63 -45 c3 -19 -1 -23 -22 -23 -28 0 -41 14 -32 36 9 24 50 13 54 -13z"/>
<path d="M4422 1748 c-2 -18 -7 -34 -12 -36 -15 -5 -12 -32 3 -32 23 0 37 23
37 62 0 48 -25 52 -28 6z"/>
<path d="M4578 1748 c-2 -28 -8 -34 -30 -36 -17 -2 -28 -9 -28 -18 0 -11 11
-14 46 -12 44 3 45 4 40 32 -3 16 -6 37 -6 47 0 32 -19 21 -22 -13z"/>
<path d="M4672 1718 c-15 -15 -16 -38 -2 -38 12 0 23 25 18 40 -2 7 -7 7 -16
-2z"/>
<path d="M4620 1695 c0 -8 7 -15 15 -15 8 0 15 7 15 15 0 8 -7 15 -15 15 -8 0
-15 -7 -15 -15z"/>
<path d="M4550 1646 c0 -9 5 -16 10 -16 6 0 10 4 10 9 0 6 -4 13 -10 16 -5 3
-10 -1 -10 -9z"/>
<path d="M4586 1652 c-3 -6 -1 -14 5 -17 15 -10 25 3 12 16 -7 7 -13 7 -17 1z"/>
</g>
</svg>
