<?xml version="1.0" encoding="UTF-8"?>
<!DOCTYPE svg PUBLIC "-//W3C//DTD SVG 1.1//EN" "http://www.w3.org/Graphics/SVG/1.1/DTD/svg11.dtd">
<svg xmlns="http://www.w3.org/2000/svg" version="1.1" width="594px" height="420px" style="shape-rendering:geometricPrecision; text-rendering:geometricPrecision; image-rendering:optimizeQuality; fill-rule:evenodd; clip-rule:evenodd" xmlns:xlink="http://www.w3.org/1999/xlink">
<g><path style="opacity:0.388" fill="#abbac3" d="M 133.5,198.5 C 148.5,197.833 163.5,197.167 178.5,196.5C 178.5,193.833 178.5,191.167 178.5,188.5C 169.833,188.5 161.167,188.5 152.5,188.5C 152.167,188.5 151.833,188.5 151.5,188.5C 146.5,188.5 141.5,188.5 136.5,188.5C 134.167,188.5 131.833,188.5 129.5,188.5C 134.9,187.813 140.4,187.146 146,186.5C 157.144,186.866 168.311,187.199 179.5,187.5C 179.5,191.167 179.5,194.833 179.5,198.5C 164.167,198.5 148.833,198.5 133.5,198.5 Z"/></g>
<g><path style="opacity:0.365" fill="#b7c2c9" d="M 220.5,194.5 C 217.775,193.287 215.441,191.454 213.5,189C 210.854,188.503 208.187,188.336 205.5,188.5C 205.167,188.5 204.833,188.5 204.5,188.5C 202.585,188.216 200.919,188.549 199.5,189.5C 198.427,188.749 198.26,187.749 199,186.5C 202.799,187.767 206.632,187.767 210.5,186.5C 214.72,188.053 218.054,190.72 220.5,194.5 Z"/></g>
<g><path style="opacity:0.365" fill="#acb6c0" d="M 257.5,191.5 C 257.5,190.5 257.5,189.5 257.5,188.5C 252.438,188.274 247.438,188.608 242.5,189.5C 243.406,188.035 244.739,187.035 246.5,186.5C 250.165,187.233 254.165,187.566 258.5,187.5C 258.768,189.099 258.434,190.432 257.5,191.5 Z"/></g>
<g><path style="opacity:0.075" fill="#c9d8d1" d="M 302.5,193.5 C 300.661,192.492 299.328,190.992 298.5,189C 297.552,188.517 296.552,188.351 295.5,188.5C 294.167,188.833 292.833,189.167 291.5,189.5C 293.824,185.887 296.657,185.553 300,188.5C 301.094,190.078 301.928,191.745 302.5,193.5 Z"/></g>
<g><path style="opacity:0.561" fill="#a9bfbe" d="M 456.5,188.5 C 454.5,188.5 452.5,188.5 450.5,188.5C 452.5,185.833 454.5,185.833 456.5,188.5 Z"/></g>
<g><path style="opacity:0.999" fill="#15678a" d="M 152.5,188.5 C 161.167,188.5 169.833,188.5 178.5,188.5C 178.5,191.167 178.5,193.833 178.5,196.5C 173.167,196.5 167.833,196.5 162.5,196.5C 162.167,187.167 161.833,187.167 161.5,196.5C 158.5,196.5 155.5,196.5 152.5,196.5C 152.5,193.833 152.5,191.167 152.5,188.5 Z"/></g>
<g><path style="opacity:1" fill="#2aa08d" d="M 394.5,188.5 C 397.167,188.5 399.833,188.5 402.5,188.5C 402.829,202.01 402.496,215.344 401.5,228.5C 401.753,222.127 401.419,215.794 400.5,209.5C 400.167,208.833 399.833,208.167 399.5,207.5C 398.515,209.772 397.681,212.105 397,214.5C 394.753,205.998 393.92,197.331 394.5,188.5 Z"/></g>
<g><path style="opacity:0.027" fill="#d4eae9" d="M 450.5,188.5 C 450.068,189.71 449.401,190.71 448.5,191.5C 448.285,189.821 448.952,188.821 450.5,188.5 Z"/></g>
<g><path style="opacity:1" fill="#1e8c8c" d="M 450.5,188.5 C 452.5,188.5 454.5,188.5 456.5,188.5C 457.08,190.749 458.413,192.415 460.5,193.5C 460.666,199.176 460.499,204.843 460,210.5C 459.583,209.244 458.75,208.577 457.5,208.5C 455.75,207.341 454.75,205.674 454.5,203.5C 453.048,202.287 451.714,202.62 450.5,204.5C 449.201,206.758 448.201,209.092 447.5,211.5C 446.25,211.577 445.417,212.244 445,213.5C 443.916,212.335 443.083,211.002 442.5,209.5C 443.683,205.096 445.016,200.763 446.5,196.5C 446.5,195.833 446.5,195.167 446.5,194.5C 446.427,192.973 447.094,191.973 448.5,191.5C 449.401,190.71 450.068,189.71 450.5,188.5 Z"/></g>
<g><path style="opacity:1" fill="#74a4ba" d="M 204.5,188.5 C 204.833,188.5 205.167,188.5 205.5,188.5C 205.107,191.513 205.774,194.18 207.5,196.5C 204.236,194.906 201.569,192.573 199.5,189.5C 201.582,189.624 203.082,190.624 204,192.5C 204.49,191.207 204.657,189.873 204.5,188.5 Z"/></g>
<g><path style="opacity:1" fill="#22688f" d="M 199.5,189.5 C 200.919,188.549 202.585,188.216 204.5,188.5C 204.657,189.873 204.49,191.207 204,192.5C 203.082,190.624 201.582,189.624 199.5,189.5 Z"/></g>
<g><path style="opacity:0.475" fill="#afcacb" d="M 456.5,188.5 C 458.587,189.585 459.92,191.251 460.5,193.5C 458.413,192.415 457.08,190.749 456.5,188.5 Z"/></g>
<g><path style="opacity:0.32" fill="#b7d5cd" d="M 355.5,232.5 C 355.5,232.167 355.5,231.833 355.5,231.5C 355.5,217.167 355.5,202.833 355.5,188.5C 352.167,188.5 348.833,188.5 345.5,188.5C 344.62,187.469 345.12,186.802 347,186.5C 350.059,186.198 353.225,186.531 356.5,187.5C 357.21,200.553 357.543,213.053 357.5,225C 356.877,227.607 356.21,230.107 355.5,232.5 Z"/></g>
<g><path style="opacity:0.039" fill="#ccd9d7" d="M 368.5,198.5 C 367.833,198.5 367.167,198.5 366.5,198.5C 366.5,197.833 366.167,197.5 365.5,197.5C 364.833,196.167 363.833,195.167 362.5,194.5C 361.833,193.167 361.167,193.167 360.5,194.5C 359.287,193.503 359.454,192.503 361,191.5C 363.965,193.297 366.465,195.631 368.5,198.5 Z"/></g>
<g><path style="opacity:0.835" fill="#92adc0" d="M 240.5,191.5 C 240.144,193.19 239.144,194.19 237.5,194.5C 237.856,192.81 238.856,191.81 240.5,191.5 Z"/></g>
<g><path style="opacity:1" fill="#286f9c" d="M 257.5,191.5 C 256.71,192.401 255.71,193.068 254.5,193.5C 253.127,193.343 251.793,193.51 250.5,194C 250.833,194.333 251.167,194.667 251.5,195C 250.5,195.333 249.5,195.667 248.5,196C 249.252,196.671 249.586,197.504 249.5,198.5C 247.883,199.038 246.216,199.371 244.5,199.5C 244.5,200.5 244.5,201.5 244.5,202.5C 243.833,203.833 242.833,204.833 241.5,205.5C 239.611,206.604 237.945,207.937 236.5,209.5C 236.5,210.167 236.167,210.5 235.5,210.5C 234.094,210.973 233.427,211.973 233.5,213.5C 232.778,213.082 232.278,212.416 232,211.5C 231.667,214.167 231.333,216.833 231,219.5C 229.686,216.911 229.019,214.244 229,211.5C 229.333,212.167 229.667,212.833 230,213.5C 230.49,212.207 230.657,210.873 230.5,209.5C 231.5,209.5 232.5,209.5 233.5,209.5C 233.5,206.167 233.5,202.833 233.5,199.5C 233.833,198.833 234.167,198.167 234.5,197.5C 235.167,196.167 236.167,195.167 237.5,194.5C 239.144,194.19 240.144,193.19 240.5,191.5C 240.833,190.5 241.5,189.833 242.5,189.5C 247.438,188.608 252.438,188.274 257.5,188.5C 257.5,189.5 257.5,190.5 257.5,191.5 Z"/></g>
<g><path style="opacity:1" fill="#7197b7" d="M 254.5,193.5 C 253.215,195.452 251.549,197.118 249.5,198.5C 249.586,197.504 249.252,196.671 248.5,196C 249.5,195.667 250.5,195.333 251.5,195C 251.167,194.667 250.833,194.333 250.5,194C 251.793,193.51 253.127,193.343 254.5,193.5 Z"/></g>
<g><path style="opacity:1" fill="#37b285" d="M 295.5,188.5 C 296.552,188.351 297.552,188.517 298.5,189C 299.328,190.992 300.661,192.492 302.5,193.5C 302.845,196.198 304.178,198.198 306.5,199.5C 307.338,199.842 307.672,200.508 307.5,201.5C 307.557,202.609 307.89,203.609 308.5,204.5C 308.67,205.822 308.337,206.989 307.5,208C 308.422,212.647 309.756,217.147 311.5,221.5C 311.043,222.298 310.376,222.631 309.5,222.5C 308.396,220.611 307.063,218.945 305.5,217.5C 305.249,215.83 304.582,214.33 303.5,213C 303.833,212.667 304.167,212.333 304.5,212C 303.255,211.209 301.922,210.709 300.5,210.5C 299.662,210.158 299.328,209.492 299.5,208.5C 299.123,206.742 298.456,205.075 297.5,203.5C 296.726,202.289 295.893,202.289 295,203.5C 294.412,198.472 294.578,193.472 295.5,188.5 Z"/></g>
<g><path style="opacity:1" fill="#66c39e" d="M 295.5,188.5 C 294.578,193.472 294.412,198.472 295,203.5C 295.893,202.289 296.726,202.289 297.5,203.5C 298.456,205.075 299.123,206.742 299.5,208.5C 298.173,207.2 296.84,205.867 295.5,204.5C 294.818,205.243 294.151,205.909 293.5,206.5C 293.666,201.156 293.499,195.823 293,190.5C 291.961,191.71 290.794,192.71 289.5,193.5C 289.66,191.847 290.326,190.514 291.5,189.5C 292.833,189.167 294.167,188.833 295.5,188.5 Z"/></g>
<g><path style="opacity:0.114" fill="#cbdbd4" d="M 302.5,193.5 C 304.326,195.147 305.66,197.147 306.5,199.5C 304.178,198.198 302.845,196.198 302.5,193.5 Z"/></g>
<g><path style="opacity:0.906" fill="#2f7690" d="M 129.5,188.5 C 131.833,188.5 134.167,188.5 136.5,188.5C 136.5,191.167 136.5,193.833 136.5,196.5C 138.167,196.5 139.833,196.5 141.5,196.5C 141.833,187.167 142.167,187.167 142.5,196.5C 145.5,196.5 148.5,196.5 151.5,196.5C 151.5,193.833 151.5,191.167 151.5,188.5C 151.833,188.5 152.167,188.5 152.5,188.5C 152.5,191.167 152.5,193.833 152.5,196.5C 155.5,196.5 158.5,196.5 161.5,196.5C 161.833,187.167 162.167,187.167 162.5,196.5C 167.833,196.5 173.167,196.5 178.5,196.5C 163.5,197.167 148.5,197.833 133.5,198.5C 132.766,199.708 132.433,201.041 132.5,202.5C 132.5,203.167 132.5,203.833 132.5,204.5C 132.833,207.833 133.167,211.167 133.5,214.5C 132.5,214.5 131.5,214.5 130.5,214.5C 128.067,214.727 126.401,213.727 125.5,211.5C 125.144,209.81 124.144,208.81 122.5,208.5C 119.158,199.85 121.492,193.183 129.5,188.5 Z"/></g>
<g><path style="opacity:1" fill="#176885" d="M 136.5,188.5 C 141.5,188.5 146.5,188.5 151.5,188.5C 151.5,191.167 151.5,193.833 151.5,196.5C 148.5,196.5 145.5,196.5 142.5,196.5C 142.167,187.167 141.833,187.167 141.5,196.5C 139.833,196.5 138.167,196.5 136.5,196.5C 136.5,193.833 136.5,191.167 136.5,188.5 Z"/></g>
<g><path style="opacity:0.004" fill="#beccd3" d="M 220.5,194.5 C 223.855,195.855 226.189,198.189 227.5,201.5C 224.758,199.425 222.424,197.091 220.5,194.5 Z"/></g>
<g><path style="opacity:1" fill="#24a185" d="M 362.5,194.5 C 363.833,195.167 364.833,196.167 365.5,197.5C 366.106,200.916 365.106,203.582 362.5,205.5C 361.192,201.685 361.192,198.019 362.5,194.5 Z"/></g>
<g><path style="opacity:0.361" fill="#aee3e3" d="M 446.5,194.5 C 446.5,195.167 446.5,195.833 446.5,196.5C 445.833,196.833 445.167,197.167 444.5,197.5C 444.427,195.973 445.094,194.973 446.5,194.5 Z"/></g>
<g><path style="opacity:0.631" fill="#aedcc5" d="M 286.5,197.5 C 286.573,199.027 285.906,200.027 284.5,200.5C 284.427,198.973 285.094,197.973 286.5,197.5 Z"/></g>
<g><path style="opacity:0.024" fill="#c7d9d4" d="M 368.5,198.5 C 370.749,199.08 372.415,200.413 373.5,202.5C 371.251,201.92 369.585,200.587 368.5,198.5 Z"/></g>
<g><path style="opacity:0.12" fill="#c7e3e1" d="M 402.5,188.5 C 399.833,188.5 397.167,188.5 394.5,188.5C 394.167,188.5 393.833,188.5 393.5,188.5C 392.67,198.325 392.17,208.325 392,218.5C 391.617,217.944 391.117,217.611 390.5,217.5C 389.167,216.833 388.167,215.833 387.5,214.5C 389.017,214.511 390.184,215.177 391,216.5C 391.333,206.833 391.667,197.167 392,187.5C 394.549,186.958 397.049,186.624 399.5,186.5C 401.038,186.453 402.038,187.12 402.5,188.5 Z"/></g>
<g><path style="opacity:0.941" fill="#89a7bf" d="M 249.5,198.5 C 248.421,200.543 246.754,201.876 244.5,202.5C 244.5,201.5 244.5,200.5 244.5,199.5C 246.216,199.371 247.883,199.038 249.5,198.5 Z"/></g>
<g><path style="opacity:0.306" fill="#a3dcdb" d="M 444.5,197.5 C 444.155,200.198 442.822,202.198 440.5,203.5C 441.34,201.147 442.674,199.147 444.5,197.5 Z"/></g>
<g><path style="opacity:0.004" fill="#cececc" d="M 149.5,201.5 C 149.897,200.475 150.563,200.308 151.5,201C 150.906,201.464 150.239,201.631 149.5,201.5 Z"/></g>
<g><path style="opacity:0.999" fill="#60a9af" d="M 460.5,193.5 C 461.89,194.899 462.89,196.566 463.5,198.5C 462.883,198.389 462.383,198.056 462,197.5C 461.735,202.882 461.235,208.215 460.5,213.5C 459.263,212.035 458.263,210.368 457.5,208.5C 458.75,208.577 459.583,209.244 460,210.5C 460.499,204.843 460.666,199.176 460.5,193.5 Z"/></g>
<g><path style="opacity:0.133" fill="#b9c8d3" d="M 234.5,197.5 C 234.167,198.167 233.833,198.833 233.5,199.5C 232.021,200.759 230.354,201.759 228.5,202.5C 227.833,202.5 227.5,202.167 227.5,201.5C 229.553,199.803 231.887,198.469 234.5,197.5 Z"/></g>
<g><path style="opacity:1" fill="#5bbaa7" d="M 362.5,194.5 C 361.192,198.019 361.192,201.685 362.5,205.5C 365.106,203.582 366.106,200.916 365.5,197.5C 366.167,197.5 366.5,197.833 366.5,198.5C 365.456,204.315 366.789,209.315 370.5,213.5C 367.229,211.409 364.063,209.076 361,206.5C 360.501,202.514 360.334,198.514 360.5,194.5C 361.167,193.167 361.833,193.167 362.5,194.5 Z"/></g>
<g><path style="opacity:0.097" fill="#dce8e7" d="M 402.5,188.5 C 403.239,188.369 403.906,188.536 404.5,189C 403.167,194.333 403.167,199.667 404.5,205C 403.683,213.088 403.183,221.255 403,229.5C 402.617,230.056 402.117,230.389 401.5,230.5C 401.5,230.167 401.5,229.833 401.5,229.5C 401.5,229.167 401.5,228.833 401.5,228.5C 402.496,215.344 402.829,202.01 402.5,188.5 Z"/></g>
<g><path style="opacity:0.314" fill="#bbdacf" d="M 307.5,201.5 C 309.262,202.262 310.262,203.596 310.5,205.5C 309.833,205.167 309.167,204.833 308.5,204.5C 307.89,203.609 307.557,202.609 307.5,201.5 Z"/></g>
<g><path style="opacity:0.243" fill="#b3c0c3" d="M 132.5,202.5 C 133.289,202.783 133.956,203.283 134.5,204C 147.167,204.333 159.833,204.667 172.5,205C 173.056,205.383 173.389,205.883 173.5,206.5C 172.833,206.5 172.167,206.5 171.5,206.5C 158.598,205.816 145.598,205.149 132.5,204.5C 132.5,203.833 132.5,203.167 132.5,202.5 Z"/></g>
<g><path style="opacity:0.043" fill="#bfd4d0" d="M 375.5,204.5 C 377.749,205.08 379.415,206.413 380.5,208.5C 378.251,207.92 376.585,206.587 375.5,204.5 Z"/></g>
<g><path style="opacity:0.949" fill="#6dafad" d="M 454.5,203.5 C 452.167,206.167 449.833,208.833 447.5,211.5C 448.201,209.092 449.201,206.758 450.5,204.5C 451.714,202.62 453.048,202.287 454.5,203.5 Z"/></g>
<g><path style="opacity:1" fill="#78caa2" d="M 284.5,200.5 C 284.664,203.187 284.497,205.854 284,208.5C 282.781,203.491 281.947,203.824 281.5,209.5C 280.5,209.5 279.5,209.5 278.5,209.5C 279.759,205.975 281.759,202.975 284.5,200.5 Z"/></g>
<g><path style="opacity:0.349" fill="#abe0e1" d="M 440.5,203.5 C 440.573,205.027 439.906,206.027 438.5,206.5C 438.427,204.973 439.094,203.973 440.5,203.5 Z"/></g>
<g><path style="opacity:1" fill="#1a6988" d="M 132.5,204.5 C 145.598,205.149 158.598,205.816 171.5,206.5C 168.5,206.5 165.5,206.5 162.5,206.5C 162.5,209.167 162.5,211.833 162.5,214.5C 152.833,214.5 143.167,214.5 133.5,214.5C 133.167,211.167 132.833,207.833 132.5,204.5 Z"/></g>
<g><path style="opacity:1" fill="#206b8d" d="M 171.5,206.5 C 172.167,206.5 172.833,206.5 173.5,206.5C 175.795,207.136 177.461,208.469 178.5,210.5C 178.66,212.153 179.326,213.486 180.5,214.5C 180.973,219.74 179.64,224.407 176.5,228.5C 175.089,230.539 173.089,231.539 170.5,231.5C 160.5,231.5 150.5,231.5 140.5,231.5C 140.5,228.833 140.5,226.167 140.5,223.5C 149.839,223.666 159.173,223.5 168.5,223C 169.056,222.617 169.389,222.117 169.5,221.5C 169.483,219.435 169.15,217.435 168.5,215.5C 166.735,214.539 164.735,214.205 162.5,214.5C 162.5,211.833 162.5,209.167 162.5,206.5C 165.5,206.5 168.5,206.5 171.5,206.5 Z"/></g>
<g><path style="opacity:1" fill="#267099" d="M 205.5,188.5 C 208.187,188.336 210.854,188.503 213.5,189C 215.441,191.454 217.775,193.287 220.5,194.5C 222.424,197.091 224.758,199.425 227.5,201.5C 227.5,202.167 227.833,202.5 228.5,202.5C 228.664,205.187 228.497,207.854 228,210.5C 225.96,206.82 224.46,206.82 223.5,210.5C 223.167,210.5 222.833,210.5 222.5,210.5C 216.871,206.539 211.871,201.873 207.5,196.5C 205.774,194.18 205.107,191.513 205.5,188.5 Z"/></g>
<g><path style="opacity:1" fill="#18828a" d="M 467.5,204.5 C 467.427,206.027 468.094,207.027 469.5,207.5C 470.786,210.117 472.453,212.45 474.5,214.5C 474.427,216.027 475.094,217.027 476.5,217.5C 477.338,217.842 477.672,218.508 477.5,219.5C 477.738,221.404 478.738,222.738 480.5,223.5C 481.265,226.096 481.599,228.763 481.5,231.5C 481.167,231.5 480.833,231.5 480.5,231.5C 475.5,231.5 470.5,231.5 465.5,231.5C 465.5,228.833 465.5,226.167 465.5,223.5C 467.985,222.74 467.985,221.74 465.5,220.5C 465.586,219.504 465.252,218.671 464.5,218C 465.305,213.251 465.805,208.418 466,203.5C 466.383,204.056 466.883,204.389 467.5,204.5 Z"/></g>
<g><path style="opacity:0.325" fill="#accdcd" d="M 467.5,204.5 C 468.906,204.973 469.573,205.973 469.5,207.5C 468.094,207.027 467.427,206.027 467.5,204.5 Z"/></g>
<g><path style="opacity:0.012" fill="#cfe6dc" d="M 293.5,206.5 C 292.66,208.853 291.326,210.853 289.5,212.5C 289.845,209.802 291.178,207.802 293.5,206.5 Z"/></g>
<g><path style="opacity:0.192" fill="#ccdfd8" d="M 310.5,205.5 C 311.906,205.973 312.573,206.973 312.5,208.5C 312.167,208.5 311.833,208.5 311.5,208.5C 310.89,207.609 310.557,206.609 310.5,205.5 Z"/></g>
<g><path style="opacity:0.573" fill="#a7dede" d="M 438.5,206.5 C 438.573,208.027 437.906,209.027 436.5,209.5C 436.427,207.973 437.094,206.973 438.5,206.5 Z"/></g>
<g><path style="opacity:1" fill="#168387" d="M 463.5,198.5 C 464.579,204.449 464.746,210.449 464,216.5C 463.241,214.937 462.074,213.937 460.5,213.5C 461.235,208.215 461.735,202.882 462,197.5C 462.383,198.056 462.883,198.389 463.5,198.5 Z"/></g>
<g><path style="opacity:1" fill="#6ab4b9" d="M 463.5,198.5 C 465.326,200.147 466.66,202.147 467.5,204.5C 466.883,204.389 466.383,204.056 466,203.5C 465.805,208.418 465.305,213.251 464.5,218C 465.252,218.671 465.586,219.504 465.5,220.5C 463.478,218.469 461.811,216.135 460.5,213.5C 462.074,213.937 463.241,214.937 464,216.5C 464.746,210.449 464.579,204.449 463.5,198.5 Z"/></g>
<g><path style="opacity:0.71" fill="#98c9d5" d="M 122.5,208.5 C 124.144,208.81 125.144,209.81 125.5,211.5C 123.856,211.19 122.856,210.19 122.5,208.5 Z"/></g>
<g><path style="opacity:0.008" fill="#c2d1e1" d="M 241.5,205.5 C 242.078,209.935 240.411,211.268 236.5,209.5C 237.945,207.937 239.611,206.604 241.5,205.5 Z"/></g>
<g><path style="opacity:0.004" fill="#d2dfdd" d="M 381.5,209.5 C 383.027,209.427 384.027,210.094 384.5,211.5C 382.973,211.573 381.973,210.906 381.5,209.5 Z"/></g>
<g><path style="opacity:1" fill="#3ab683" d="M 293.5,206.5 C 291.178,207.802 289.845,209.802 289.5,212.5C 287.612,213.94 285.945,215.606 284.5,217.5C 283.571,218.689 283.238,220.022 283.5,221.5C 283.5,222.167 283.167,222.5 282.5,222.5C 281.094,222.973 280.427,223.973 280.5,225.5C 279.542,225.953 278.708,226.619 278,227.5C 277.254,221.449 277.421,215.449 278.5,209.5C 279.5,209.5 280.5,209.5 281.5,209.5C 281.947,203.824 282.781,203.491 284,208.5C 284.497,205.854 284.664,203.187 284.5,200.5C 285.906,200.027 286.573,199.027 286.5,197.5C 287.026,195.77 288.026,194.436 289.5,193.5C 290.794,192.71 291.961,191.71 293,190.5C 293.499,195.823 293.666,201.156 293.5,206.5 Z"/></g>
<g><path style="opacity:1" fill="#7ac2a8" d="M 311.5,208.5 C 311.833,208.5 312.167,208.5 312.5,208.5C 314.218,210.223 315.551,212.223 316.5,214.5C 315.206,213.71 314.039,212.71 313,211.5C 312.085,212.328 311.419,213.328 311,214.5C 310.82,212.512 310.986,210.512 311.5,208.5 Z"/></g>
<g><path style="opacity:0.051" fill="#c4d5d8" d="M 469.5,207.5 C 472.323,208.992 473.99,211.326 474.5,214.5C 472.453,212.45 470.786,210.117 469.5,207.5 Z"/></g>
<g><path style="opacity:0.075" fill="#c8d2da" d="M 178.5,210.5 C 180.104,211.287 180.771,212.62 180.5,214.5C 179.326,213.486 178.66,212.153 178.5,210.5 Z"/></g>
<g><path style="opacity:1" fill="#29958f" d="M 446.5,196.5 C 445.016,200.763 443.683,205.096 442.5,209.5C 443.083,211.002 443.916,212.335 445,213.5C 445.417,212.244 446.25,211.577 447.5,211.5C 447.34,213.153 446.674,214.486 445.5,215.5C 444.094,215.973 443.427,216.973 443.5,218.5C 442.5,218.833 441.833,219.5 441.5,220.5C 441.5,220.833 441.5,221.167 441.5,221.5C 440.5,221.833 439.833,222.5 439.5,223.5C 438.243,226.504 436.577,229.337 434.5,232C 430.129,232.828 425.795,232.661 421.5,231.5C 421.863,230.817 422.196,230.15 422.5,229.5C 424.5,226.833 426.5,224.167 428.5,221.5C 429.901,221.029 431.234,220.362 432.5,219.5C 432.291,218.914 431.957,218.414 431.5,218C 432.823,217.184 433.489,216.017 433.5,214.5C 433.75,212.326 434.75,210.659 436.5,209.5C 437.906,209.027 438.573,208.027 438.5,206.5C 439.906,206.027 440.573,205.027 440.5,203.5C 442.822,202.198 444.155,200.198 444.5,197.5C 445.167,197.167 445.833,196.833 446.5,196.5 Z"/></g>
<g><path style="opacity:0.863" fill="#87ceb5" d="M 300.5,210.5 C 301.922,210.709 303.255,211.209 304.5,212C 304.167,212.333 303.833,212.667 303.5,213C 304.582,214.33 305.249,215.83 305.5,217.5C 303.6,215.381 301.934,213.047 300.5,210.5 Z"/></g>
<g><path style="opacity:1" fill="#31af84" d="M 308.5,204.5 C 309.167,204.833 309.833,205.167 310.5,205.5C 310.557,206.609 310.89,207.609 311.5,208.5C 310.986,210.512 310.82,212.512 311,214.5C 311.419,213.328 312.085,212.328 313,211.5C 314.039,212.71 315.206,213.71 316.5,214.5C 316.427,216.027 317.094,217.027 318.5,217.5C 318.427,219.027 319.094,220.027 320.5,220.5C 320.427,222.027 321.094,223.027 322.5,223.5C 323.649,226.041 323.649,228.541 322.5,231C 315.167,231.667 307.833,231.667 300.5,231C 299.845,228.841 298.512,227.341 296.5,226.5C 296.5,225.5 296.5,224.5 296.5,223.5C 301.032,223.818 305.366,223.485 309.5,222.5C 310.376,222.631 311.043,222.298 311.5,221.5C 309.756,217.147 308.422,212.647 307.5,208C 308.337,206.989 308.67,205.822 308.5,204.5 Z"/></g>
<g><path style="opacity:0.31" fill="#9fc5d4" d="M 130.5,214.5 C 131.5,214.5 132.5,214.5 133.5,214.5C 143.167,214.5 152.833,214.5 162.5,214.5C 164.735,214.205 166.735,214.539 168.5,215.5C 157.585,215.18 146.752,215.513 136,216.5C 134.052,215.891 132.218,215.224 130.5,214.5 Z"/></g>
<g><path style="opacity:0.722" fill="#9fd8d3" d="M 371.5,214.5 C 374.089,215.419 376.089,217.086 377.5,219.5C 374.911,218.581 372.911,216.914 371.5,214.5 Z"/></g>
<g><path style="opacity:1" fill="#6ec69d" d="M 278.5,209.5 C 277.421,215.449 277.254,221.449 278,227.5C 278.708,226.619 279.542,225.953 280.5,225.5C 279.66,227.853 278.326,229.853 276.5,231.5C 273.713,232.477 270.713,232.81 267.5,232.5C 267.5,232.167 267.5,231.833 267.5,231.5C 267.768,229.901 267.434,228.568 266.5,227.5C 267.026,225.77 268.026,224.436 269.5,223.5C 272.004,218.485 275.004,213.819 278.5,209.5 Z"/></g>
<g><path style="opacity:0.11" fill="#ceded9" d="M 316.5,214.5 C 317.906,214.973 318.573,215.973 318.5,217.5C 317.094,217.027 316.427,216.027 316.5,214.5 Z"/></g>
<g><path style="opacity:0.012" fill="#dae8e7" d="M 445.5,215.5 C 445.573,217.027 444.906,218.027 443.5,218.5C 443.427,216.973 444.094,215.973 445.5,215.5 Z"/></g>
<g><path style="opacity:0.161" fill="#bdd3d7" d="M 474.5,214.5 C 475.906,214.973 476.573,215.973 476.5,217.5C 475.094,217.027 474.427,216.027 474.5,214.5 Z"/></g>
<g><path style="opacity:0.024" fill="#c0ddcf" d="M 289.5,212.5 C 288.277,216.049 286.277,219.049 283.5,221.5C 283.238,220.022 283.571,218.689 284.5,217.5C 285.945,215.606 287.612,213.94 289.5,212.5 Z"/></g>
<g><path style="opacity:1" fill="#239f88" d="M 366.5,198.5 C 367.167,198.5 367.833,198.5 368.5,198.5C 369.585,200.587 371.251,201.92 373.5,202.5C 374.5,202.833 375.167,203.5 375.5,204.5C 376.585,206.587 378.251,207.92 380.5,208.5C 381.167,208.5 381.5,208.833 381.5,209.5C 381.973,210.906 382.973,211.573 384.5,211.5C 385.833,212.167 386.833,213.167 387.5,214.5C 388.167,215.833 389.167,216.833 390.5,217.5C 390.823,221.226 390.489,224.893 389.5,228.5C 388.029,227.619 387.196,226.286 387,224.5C 386.329,225.252 385.496,225.586 384.5,225.5C 382.761,222.757 380.427,220.757 377.5,219.5C 376.089,217.086 374.089,215.419 371.5,214.5C 370.833,214.5 370.5,214.167 370.5,213.5C 366.789,209.315 365.456,204.315 366.5,198.5 Z"/></g>
<g><path style="opacity:0.008" fill="#cecdc8" d="M 159.5,218.5 C 160.833,219.167 160.833,219.167 159.5,218.5 Z"/></g>
<g><path style="opacity:0.149" fill="#c9ddd7" d="M 318.5,217.5 C 319.906,217.973 320.573,218.973 320.5,220.5C 319.094,220.027 318.427,219.027 318.5,217.5 Z"/></g>
<g><path style="opacity:1" fill="#26a385" d="M 345.5,189.5 C 345.5,189.167 345.5,188.833 345.5,188.5C 348.833,188.5 352.167,188.5 355.5,188.5C 355.5,202.833 355.5,217.167 355.5,231.5C 352.5,231.5 349.5,231.5 346.5,231.5C 346.829,217.323 346.496,203.323 345.5,189.5 Z"/></g>
<g><path style="opacity:0.975" fill="#59b9ab" d="M 393.5,188.5 C 393.926,200.734 393.259,212.9 391.5,225C 391.833,226.833 392.167,228.667 392.5,230.5C 394.535,229.959 396.535,229.292 398.5,228.5C 397.41,227.391 397.41,226.391 398.5,225.5C 399.521,226.901 400.521,228.235 401.5,229.5C 401.5,229.833 401.5,230.167 401.5,230.5C 394.525,233.87 388.858,232.203 384.5,225.5C 385.496,225.586 386.329,225.252 387,224.5C 387.196,226.286 388.029,227.619 389.5,228.5C 390.489,224.893 390.823,221.226 390.5,217.5C 391.117,217.611 391.617,217.944 392,218.5C 392.17,208.325 392.67,198.325 393.5,188.5 Z"/></g>
<g><path style="opacity:1" fill="#179c87" d="M 393.5,188.5 C 393.833,188.5 394.167,188.5 394.5,188.5C 393.92,197.331 394.753,205.998 397,214.5C 397.681,212.105 398.515,209.772 399.5,207.5C 399.833,208.167 400.167,208.833 400.5,209.5C 401.419,215.794 401.753,222.127 401.5,228.5C 401.5,228.833 401.5,229.167 401.5,229.5C 400.521,228.235 399.521,226.901 398.5,225.5C 397.41,226.391 397.41,227.391 398.5,228.5C 396.535,229.292 394.535,229.959 392.5,230.5C 392.167,228.667 391.833,226.833 391.5,225C 393.259,212.9 393.926,200.734 393.5,188.5 Z"/></g>
<g><path style="opacity:1" fill="#64b4b2" d="M 433.5,214.5 C 433.489,216.017 432.823,217.184 431.5,218C 431.957,218.414 432.291,218.914 432.5,219.5C 431.234,220.362 429.901,221.029 428.5,221.5C 429.433,218.63 431.1,216.296 433.5,214.5 Z"/></g>
<g><path style="opacity:0.012" fill="#d0e6e2" d="M 443.5,218.5 C 443.5,219.833 442.833,220.5 441.5,220.5C 441.833,219.5 442.5,218.833 443.5,218.5 Z"/></g>
<g><path style="opacity:1" fill="#3ab781" d="M 276.5,231.5 C 275.5,231.5 274.5,231.5 273.5,231.5C 273.793,227.563 273.46,223.73 272.5,220C 273,219.5 273.5,219 274,218.5C 274.667,219.833 275.333,219.833 276,218.5C 276.499,222.821 276.666,227.154 276.5,231.5 Z"/></g>
<g><path style="opacity:0.678" fill="#a3c2c9" d="M 477.5,219.5 C 479.262,220.262 480.262,221.596 480.5,223.5C 478.738,222.738 477.738,221.404 477.5,219.5 Z"/></g>
<g><path style="opacity:0.739" fill="#6493bb" d="M 222.5,210.5 C 222.833,210.5 223.167,210.5 223.5,210.5C 224.462,217.412 224.795,224.412 224.5,231.5C 227.059,231.198 229.393,231.532 231.5,232.5C 228.833,232.5 226.167,232.5 223.5,232.5C 223.764,225.11 223.43,217.777 222.5,210.5 Z"/></g>
<g><path style="opacity:0.565" fill="#9bd8d3" d="M 377.5,219.5 C 380.427,220.757 382.761,222.757 384.5,225.5C 381.573,224.243 379.239,222.243 377.5,219.5 Z"/></g>
<g><path style="opacity:0.314" fill="#a7c1ca" d="M 169.5,221.5 C 169.389,222.117 169.056,222.617 168.5,223C 159.173,223.5 149.839,223.666 140.5,223.5C 140.167,223.5 139.833,223.5 139.5,223.5C 138.5,223.5 137.5,223.5 136.5,223.5C 136.167,223.5 135.833,223.5 135.5,223.5C 131.5,223.5 127.5,223.5 123.5,223.5C 123.5,226.167 123.5,228.833 123.5,231.5C 123.5,231.833 123.5,232.167 123.5,232.5C 122.521,229.375 122.187,226.042 122.5,222.5C 131.082,222.472 139.915,222.472 149,222.5C 152.276,222.442 155.276,221.776 158,220.5C 159.299,221.98 160.966,222.646 163,222.5C 165.187,222.212 167.354,221.878 169.5,221.5 Z"/></g>
<g><path style="opacity:1" fill="#186996" d="M 233.5,199.5 C 233.5,202.833 233.5,206.167 233.5,209.5C 232.5,209.5 231.5,209.5 230.5,209.5C 230.657,210.873 230.49,212.207 230,213.5C 229.667,212.833 229.333,212.167 229,211.5C 229.019,214.244 229.686,216.911 231,219.5C 231.333,216.833 231.667,214.167 232,211.5C 232.278,212.416 232.778,213.082 233.5,213.5C 233.5,219.833 233.5,226.167 233.5,232.5C 232.833,232.5 232.167,232.5 231.5,232.5C 229.393,231.532 227.059,231.198 224.5,231.5C 224.795,224.412 224.462,217.412 223.5,210.5C 224.46,206.82 225.96,206.82 228,210.5C 228.497,207.854 228.664,205.187 228.5,202.5C 230.354,201.759 232.021,200.759 233.5,199.5 Z"/></g>
<g><path style="opacity:0.274" fill="#c3ddd4" d="M 305.5,217.5 C 307.063,218.945 308.396,220.611 309.5,222.5C 305.366,223.485 301.032,223.818 296.5,223.5C 296.5,224.5 296.5,225.5 296.5,226.5C 293.849,224.539 294.016,222.872 297,221.5C 299.624,221.47 302.291,221.803 305,222.5C 306.628,221.038 306.795,219.372 305.5,217.5 Z"/></g>
<g><path style="opacity:0.357" fill="#b3d4c9" d="M 320.5,220.5 C 321.906,220.973 322.573,221.973 322.5,223.5C 321.094,223.027 320.427,222.027 320.5,220.5 Z"/></g>
<g><path style="opacity:0.039" fill="#d9e6e5" d="M 441.5,221.5 C 441.938,221.435 442.272,221.601 442.5,222C 441.756,223.039 440.756,223.539 439.5,223.5C 439.833,222.5 440.5,221.833 441.5,221.5 Z"/></g>
<g><path style="opacity:0.235" fill="#bdd7d9" d="M 465.5,220.5 C 467.985,221.74 467.985,222.74 465.5,223.5C 465.167,223.5 464.833,223.5 464.5,223.5C 460.629,223.185 456.962,223.518 453.5,224.5C 452.287,223.503 452.454,222.503 454,221.5C 455.906,222.131 457.906,222.464 460,222.5C 462.295,222.453 464.129,221.787 465.5,220.5 Z"/></g>
<g><path style="opacity:1" fill="#3cb980" d="M 269.5,223.5 C 270.397,222.402 271.23,222.402 272,223.5C 272.497,226.146 272.664,228.813 272.5,231.5C 271.127,231.657 269.793,231.49 268.5,231C 268.357,228.565 268.69,226.065 269.5,223.5 Z"/></g>
<g><path style="opacity:0.031" fill="#c9dfd4" d="M 282.5,222.5 C 282.573,224.027 281.906,225.027 280.5,225.5C 280.427,223.973 281.094,222.973 282.5,222.5 Z"/></g>
<g><path style="opacity:0.715" fill="#68c2b1" d="M 345.5,189.5 C 346.496,203.323 346.829,217.323 346.5,231.5C 349.5,231.5 352.5,231.5 355.5,231.5C 355.5,231.833 355.5,232.167 355.5,232.5C 352.167,232.5 348.833,232.5 345.5,232.5C 345.5,218.167 345.5,203.833 345.5,189.5 Z"/></g>
<g><path style="opacity:1" fill="#186e88" d="M 135.5,223.5 C 135.5,226.167 135.5,228.833 135.5,231.5C 131.5,231.5 127.5,231.5 123.5,231.5C 123.5,228.833 123.5,226.167 123.5,223.5C 127.5,223.5 131.5,223.5 135.5,223.5 Z"/></g>
<g><path style="opacity:0.016" fill="#d3dbe1" d="M 180.5,214.5 C 181.912,218.889 181.412,223.222 179,227.5C 178.329,228.252 177.496,228.586 176.5,228.5C 179.64,224.407 180.973,219.74 180.5,214.5 Z"/></g>
<g><path style="opacity:1" fill="#1a878c" d="M 464.5,223.5 C 464.5,226.167 464.5,228.833 464.5,231.5C 462.473,231.662 460.473,231.495 458.5,231C 457.285,228.625 455.619,226.791 453.5,225.5C 453.5,225.167 453.5,224.833 453.5,224.5C 456.962,223.518 460.629,223.185 464.5,223.5 Z"/></g>
<g><path style="opacity:0.55" fill="#9cb5c7" d="M 235.5,210.5 C 234.584,217.252 234.584,223.918 235.5,230.5C 235,231.5 234.5,232.5 234,233.5C 233.601,233.272 233.435,232.938 233.5,232.5C 233.5,226.167 233.5,219.833 233.5,213.5C 233.427,211.973 234.094,210.973 235.5,210.5 Z"/></g>
<g><path style="opacity:0.937" fill="#92b9bc" d="M 480.5,223.5 C 483.794,225.956 484.127,228.623 481.5,231.5C 481.599,228.763 481.265,226.096 480.5,223.5 Z"/></g>
<g><path style="opacity:0.008" fill="#ebede7" d="M 422.5,229.5 C 421.833,228.167 421.833,228.167 422.5,229.5 Z"/></g>
<g><path style="opacity:1" fill="#197193" d="M 266.5,227.5 C 267.434,228.568 267.768,229.901 267.5,231.5C 266.624,231.631 265.957,231.298 265.5,230.5C 266.127,229.583 266.461,228.583 266.5,227.5 Z"/></g>
<g><path style="opacity:0.729" fill="#5791a7" d="M 135.5,223.5 C 135.833,223.5 136.167,223.5 136.5,223.5C 136.5,226.167 136.5,228.833 136.5,231.5C 137.5,231.5 138.5,231.5 139.5,231.5C 139.5,228.833 139.5,226.167 139.5,223.5C 139.833,223.5 140.167,223.5 140.5,223.5C 140.5,226.167 140.5,228.833 140.5,231.5C 150.5,231.5 160.5,231.5 170.5,231.5C 169.122,232.234 167.622,232.901 166,233.5C 151.957,232.919 137.79,232.586 123.5,232.5C 123.5,232.167 123.5,231.833 123.5,231.5C 127.5,231.5 131.5,231.5 135.5,231.5C 135.5,228.833 135.5,226.167 135.5,223.5 Z"/></g>
<g><path style="opacity:1" fill="#186a86" d="M 136.5,223.5 C 137.5,223.5 138.5,223.5 139.5,223.5C 139.5,226.167 139.5,228.833 139.5,231.5C 138.5,231.5 137.5,231.5 136.5,231.5C 136.5,228.833 136.5,226.167 136.5,223.5 Z"/></g>
<g><path style="opacity:0.694" fill="#8ab6c7" d="M 266.5,227.5 C 266.461,228.583 266.127,229.583 265.5,230.5C 265.957,231.298 266.624,231.631 267.5,231.5C 267.5,231.833 267.5,232.167 267.5,232.5C 262.787,232.131 262.454,230.464 266.5,227.5 Z"/></g>
<g><path style="opacity:0.647" fill="#87c8b3" d="M 322.5,223.5 C 325.837,226.005 326.17,228.838 323.5,232C 315.5,232.667 307.5,232.667 299.5,232C 298.242,230.259 297.242,228.426 296.5,226.5C 298.512,227.341 299.845,228.841 300.5,231C 307.833,231.667 315.167,231.667 322.5,231C 323.649,228.541 323.649,226.041 322.5,223.5 Z"/></g>
<g><path style="opacity:0.561" fill="#6eb8bd" d="M 464.5,223.5 C 464.833,223.5 465.167,223.5 465.5,223.5C 465.5,226.167 465.5,228.833 465.5,231.5C 470.5,231.5 475.5,231.5 480.5,231.5C 473.011,232.656 465.345,232.822 457.5,232C 455.942,229.948 454.608,227.781 453.5,225.5C 455.619,226.791 457.285,228.625 458.5,231C 460.473,231.495 462.473,231.662 464.5,231.5C 464.5,228.833 464.5,226.167 464.5,223.5 Z"/></g>
<g><path style="opacity:0.008" fill="#e6ebe8" d="M 421.5,233.5 C 422.833,234.167 422.833,234.167 421.5,233.5 Z"/></g>
<g><path style="opacity:0.012" fill="#e9eae9" d="M 467.5,234.5 C 468.708,233.218 470.042,233.218 471.5,234.5C 470.443,234.906 469.109,234.906 467.5,234.5 Z"/></g>
<g><path style="opacity:0.009" fill="#ebebea" d="M 473.5,234.5 C 474.601,233.402 475.934,233.235 477.5,234C 476.207,234.49 474.873,234.657 473.5,234.5 Z"/></g>
<g><path style="opacity:0.525" fill="#8dc0bb" d="M 431.5,235.5 C 430.603,236.598 429.77,236.598 429,235.5C 428.536,236.094 428.369,236.761 428.5,237.5C 427.292,238.234 425.959,238.567 424.5,238.5C 423.711,238.217 423.044,237.717 422.5,237C 424.208,235.938 424.874,234.771 424.5,233.5C 426.941,234.327 429.107,234.327 431,233.5C 431.464,234.094 431.631,234.761 431.5,235.5 Z"/></g>
<g><path style="opacity:0.01" fill="#ebebea" d="M 446.5,235.5 C 445.761,235.631 445.094,235.464 444.5,235C 445.437,234.308 446.103,234.475 446.5,235.5 Z"/></g>
<g><path style="opacity:0.012" fill="#e2e2e2" d="M 464.5,235.5 C 464.897,234.475 465.563,234.308 466.5,235C 465.906,235.464 465.239,235.631 464.5,235.5 Z"/></g>
<g><path style="opacity:0.004" fill="#ebebea" d="M 435.5,236.5 C 434.833,235.167 434.833,235.167 435.5,236.5 Z"/></g>
<g><path style="opacity:0.992" fill="#2b908a" d="M 431.5,235.5 C 431.5,236.5 431.5,237.5 431.5,238.5C 430.209,238.737 429.209,238.404 428.5,237.5C 428.369,236.761 428.536,236.094 429,235.5C 429.77,236.598 430.603,236.598 431.5,235.5 Z"/></g>
<g><path style="opacity:0.008" fill="#eaebeb" d="M 435.5,236.5 C 436.833,237.167 436.833,237.167 435.5,236.5 Z"/></g>
<g><path style="opacity:0.133" fill="#d2e6e6" d="M 446.5,235.5 C 447.71,235.932 448.71,236.599 449.5,237.5C 448.5,237.5 447.5,237.5 446.5,237.5C 446.5,236.833 446.5,236.167 446.5,235.5 Z"/></g>
<g><path style="opacity:0.016" fill="#ebebee" d="M 455.5,237.5 C 456.251,236.427 457.251,236.26 458.5,237C 457.552,237.483 456.552,237.649 455.5,237.5 Z"/></g>
<g><path style="opacity:0.027" fill="#e8e8e8" d="M 469.5,237.5 C 469.897,236.475 470.563,236.308 471.5,237C 470.906,237.464 470.239,237.631 469.5,237.5 Z"/></g>
<g><path style="opacity:0.004" fill="#dae4e4" d="M 476.5,238.5 C 475.5,238.5 474.5,238.5 473.5,238.5C 473.791,237.351 474.624,236.684 476,236.5C 476.833,236.667 477.667,236.833 478.5,237C 477.584,237.278 476.918,237.778 476.5,238.5 Z"/></g>
<g><path style="opacity:0.027" fill="#e6e7e6" d="M 455.5,237.5 C 455.5,237.833 455.5,238.167 455.5,238.5C 454.83,238.019 454.83,237.685 455.5,237.5 Z"/></g>
<g><path style="opacity:0.086" fill="#d8eaeb" d="M 431.5,235.5 C 432.535,236.791 433.535,238.124 434.5,239.5C 430.766,239.323 427.099,239.656 423.5,240.5C 422.761,240.631 422.094,240.464 421.5,240C 422.737,239.768 423.737,239.268 424.5,238.5C 425.959,238.567 427.292,238.234 428.5,237.5C 429.209,238.404 430.209,238.737 431.5,238.5C 431.5,237.5 431.5,236.5 431.5,235.5 Z"/></g>
<g><path style="opacity:1" fill="#509e9c" d="M 441.5,235.5 C 443.912,235.694 444.912,237.027 444.5,239.5C 443.5,239.5 442.5,239.5 441.5,239.5C 441.5,238.5 441.5,237.5 441.5,236.5C 441.5,236.167 441.5,235.833 441.5,235.5 Z"/></g>
<g><path style="opacity:0.004" fill="#e5eced" d="M 476.5,238.5 C 477.833,238.5 478.5,239.167 478.5,240.5C 477.5,240.167 476.833,239.5 476.5,238.5 Z"/></g>
<g><path style="opacity:0.004" fill="#dfe1df" d="M 479.5,240.5 C 479.897,239.475 480.563,239.308 481.5,240C 480.906,240.464 480.239,240.631 479.5,240.5 Z"/></g>
<g><path style="opacity:0.008" fill="#eaebea" d="M 454.5,241.5 C 453.761,241.631 453.094,241.464 452.5,241C 453.437,240.308 454.103,240.475 454.5,241.5 Z"/></g>
<g><path style="opacity:0.353" fill="#c7dddc" d="M 455.5,238.5 C 456.735,238.721 457.735,239.388 458.5,240.5C 460.005,237.869 460.671,238.203 460.5,241.5C 459.167,241.5 457.833,241.5 456.5,241.5C 456.443,240.391 456.11,239.391 455.5,238.5 Z"/></g>
<g><path style="opacity:0.443" fill="#9cc2c6" d="M 473.5,238.5 C 473.573,240.027 472.906,241.027 471.5,241.5C 471.427,239.973 472.094,238.973 473.5,238.5 Z"/></g>
<g><path style="opacity:0.043" fill="#c7cedd" d="M 221.5,239.5 C 222.434,240.568 222.768,241.901 222.5,243.5C 221.325,243.719 220.325,243.386 219.5,242.5C 220.193,241.482 220.859,240.482 221.5,239.5 Z"/></g>
<g><path style="opacity:0.063" fill="#e3eeee" d="M 434.5,239.5 C 435.552,239.351 436.552,239.517 437.5,240C 436.707,241.085 436.04,242.252 435.5,243.5C 436.807,244.865 436.807,246.198 435.5,247.5C 434.527,245.052 434.194,242.385 434.5,239.5 Z"/></g>
<g><path style="opacity:0.088" fill="#d3e6e4" d="M 441.5,235.5 C 440.167,235.833 440.167,236.167 441.5,236.5C 441.5,237.5 441.5,238.5 441.5,239.5C 442.5,239.5 443.5,239.5 444.5,239.5C 444.435,239.938 444.601,240.272 445,240.5C 445.232,239.263 445.732,238.263 446.5,237.5C 446.5,241.5 446.5,245.5 446.5,249.5C 445.833,249.5 445.167,249.5 444.5,249.5C 444.5,246.833 444.5,244.167 444.5,241.5C 443.5,241.5 442.5,241.5 441.5,241.5C 441.795,243.735 441.461,245.735 440.5,247.5C 439.883,245.771 438.883,244.271 437.5,243C 439.525,241.806 439.859,240.306 438.5,238.5C 439.098,237.205 439.598,235.872 440,234.5C 441.049,233.483 442.216,233.316 443.5,234C 442.584,234.278 441.918,234.778 441.5,235.5 Z"/></g>
<g><path style="opacity:0.051" fill="#d8d5d5" d="M 482.5,243.5 C 483.077,242.227 483.743,242.227 484.5,243.5C 484.03,244.463 483.363,244.463 482.5,243.5 Z"/></g>
<g><path style="opacity:1" fill="#409b94" d="M 434.5,239.5 C 434.194,242.385 434.527,245.052 435.5,247.5C 437.167,247.5 438.833,247.5 440.5,247.5C 441.461,245.735 441.795,243.735 441.5,241.5C 442.5,241.5 443.5,241.5 444.5,241.5C 444.5,244.167 444.5,246.833 444.5,249.5C 444.586,250.496 444.252,251.329 443.5,252C 440.905,252.226 438.405,252.726 436,253.5C 432.688,252.024 429.188,251.19 425.5,251C 424.244,250.583 423.577,249.75 423.5,248.5C 422.699,246.958 422.366,245.292 422.5,243.5C 422.557,242.391 422.89,241.391 423.5,240.5C 427.099,239.656 430.766,239.323 434.5,239.5 Z"/></g>
<g><path style="opacity:0.231" fill="#c6dedf" d="M 449.5,237.5 C 450.249,238.531 450.915,239.698 451.5,241C 450.831,243.262 450.498,245.429 450.5,247.5C 449.521,244.375 449.187,241.042 449.5,237.5 Z"/></g>
<g><path style="opacity:0.02" fill="#e6eaea" d="M 426.5,244.5 C 427.833,243.167 429.167,243.167 430.5,244.5C 429.167,244.833 429.167,245.167 430.5,245.5C 429.167,246.833 427.833,246.833 426.5,245.5C 429.167,245.167 429.167,244.833 426.5,244.5 Z"/></g>
<g><path style="opacity:1" fill="#3d8c94" d="M 473.5,238.5 C 474.5,238.5 475.5,238.5 476.5,238.5C 476.833,239.5 477.5,240.167 478.5,240.5C 478.833,240.5 479.167,240.5 479.5,240.5C 481.242,243.643 483.242,246.643 485.5,249.5C 484.486,250.765 482.986,251.431 481,251.5C 479.5,251.333 478,251.167 476.5,251C 475.944,250.617 475.611,250.117 475.5,249.5C 477.199,249.66 478.866,249.494 480.5,249C 479.956,248.283 479.289,247.783 478.5,247.5C 477.094,247.027 476.427,246.027 476.5,244.5C 475.5,241.833 474.5,241.833 473.5,244.5C 472.214,247.117 470.547,249.45 468.5,251.5C 468.167,251.5 467.833,251.5 467.5,251.5C 467.5,250.167 467.5,248.833 467.5,247.5C 468.6,246.395 469.267,245.062 469.5,243.5C 469.833,242.5 470.5,241.833 471.5,241.5C 472.906,241.027 473.573,240.027 473.5,238.5 Z"/></g>
<g><path style="opacity:0.016" fill="#e4edeb" d="M 474.5,245.5 C 475.833,246.167 475.833,246.167 474.5,245.5 Z"/></g>
<g><path style="opacity:0.008" fill="#bad8db" d="M 476.5,244.5 C 475.5,244.5 474.5,244.5 473.5,244.5C 474.5,241.833 475.5,241.833 476.5,244.5 Z"/></g>
<g><path style="opacity:0.008" fill="#dbe6e8" d="M 422.5,243.5 C 422.366,245.292 422.699,246.958 423.5,248.5C 422.351,248.209 421.684,247.376 421.5,246C 421.528,244.93 421.861,244.097 422.5,243.5 Z"/></g>
<g><path style="opacity:0.2" fill="#c0dadd" d="M 460.5,242.5 C 461.5,243.5 462.5,244.5 463.5,245.5C 460.917,246.092 460.917,246.758 463.5,247.5C 465.038,247.547 466.038,246.88 466.5,245.5C 467.5,244.833 468.5,244.167 469.5,243.5C 469.267,245.062 468.6,246.395 467.5,247.5C 465.283,248.369 462.95,248.702 460.5,248.5C 460.5,246.5 460.5,244.5 460.5,242.5 Z"/></g>
<g><path style="opacity:0.008" fill="#eaeae9" d="M 463.5,245.5 C 464.833,246.167 464.833,246.167 463.5,245.5 Z"/></g>
<g><path style="opacity:0.008" fill="#ecedec" d="M 466.5,245.5 C 465.833,244.167 465.833,244.167 466.5,245.5 Z"/></g>
<g><path style="opacity:0.078" fill="#d0e5e3" d="M 478.5,247.5 C 479.289,247.783 479.956,248.283 480.5,249C 478.866,249.494 477.199,249.66 475.5,249.5C 475.369,248.761 475.536,248.094 476,247.5C 476.977,248.774 477.811,248.774 478.5,247.5 Z"/></g>
<g><path style="opacity:1" fill="#20898b" d="M 446.5,237.5 C 447.5,237.5 448.5,237.5 449.5,237.5C 449.187,241.042 449.521,244.375 450.5,247.5C 452.265,248.461 454.265,248.795 456.5,248.5C 456.5,246.167 456.5,243.833 456.5,241.5C 457.833,241.5 459.167,241.5 460.5,241.5C 460.5,241.833 460.5,242.167 460.5,242.5C 460.5,244.5 460.5,246.5 460.5,248.5C 462.95,248.702 465.283,248.369 467.5,247.5C 467.5,248.833 467.5,250.167 467.5,251.5C 461.167,251.5 454.833,251.5 448.5,251.5C 447.5,251.167 446.833,250.5 446.5,249.5C 446.5,245.5 446.5,241.5 446.5,237.5 Z"/></g>
<g><path style="opacity:0.024" fill="#dce7e7" d="M 454.5,241.5 C 455.167,241.5 455.833,241.5 456.5,241.5C 456.5,243.833 456.5,246.167 456.5,248.5C 454.265,248.795 452.265,248.461 450.5,247.5C 452.199,247.66 453.866,247.494 455.5,247C 454.167,246 454.167,245 455.5,244C 451.175,244.203 450.842,243.37 454.5,241.5 Z"/></g>
<g><path style="opacity:0.694" fill="#95c0c0" d="M 448.5,251.5 C 454.833,251.5 461.167,251.5 467.5,251.5C 467.833,251.5 468.167,251.5 468.5,251.5C 468.217,252.289 467.717,252.956 467,253.5C 464.537,254.406 462.37,254.406 460.5,253.5C 459.833,253.5 459.167,253.5 458.5,253.5C 457.833,252.167 457.167,252.167 456.5,253.5C 455.5,253.5 454.5,253.5 453.5,253.5C 451.833,252.833 450.167,252.167 448.5,251.5 Z"/></g>
<g><path style="opacity:0.008" fill="#e2e1e1" d="M 474.5,251.5 C 473.833,252.167 473.833,252.167 474.5,251.5 Z"/></g>
<g><path style="opacity:0.729" fill="#8db7b9" d="M 475.5,249.5 C 475.611,250.117 475.944,250.617 476.5,251C 478,251.167 479.5,251.333 481,251.5C 482.986,251.431 484.486,250.765 485.5,249.5C 486.404,250.209 486.737,251.209 486.5,252.5C 483.837,252.899 481.337,252.899 479,252.5C 478.055,252.905 477.388,253.572 477,254.5C 476.148,253.429 475.315,252.429 474.5,251.5C 474.328,250.508 474.662,249.842 475.5,249.5 Z"/></g>
<g><path style="opacity:0.984" fill="#298a8b" d="M 453.5,253.5 C 454.5,253.5 455.5,253.5 456.5,253.5C 456.5,254.5 456.5,255.5 456.5,256.5C 455.5,256.5 454.5,256.5 453.5,256.5C 453.5,255.5 453.5,254.5 453.5,253.5 Z"/></g>
<g><path style="opacity:0.165" fill="#aed1d3" d="M 456.5,253.5 C 457.167,253.5 457.833,253.5 458.5,253.5C 457.086,255.598 457.752,256.598 460.5,256.5C 460.5,255.5 460.5,254.5 460.5,253.5C 461.434,254.568 461.768,255.901 461.5,257.5C 458.615,257.806 455.948,257.473 453.5,256.5C 454.5,256.5 455.5,256.5 456.5,256.5C 456.5,255.5 456.5,254.5 456.5,253.5 Z"/></g>
<g><path style="opacity:0.98" fill="#218589" d="M 458.5,253.5 C 459.167,253.5 459.833,253.5 460.5,253.5C 460.5,254.5 460.5,255.5 460.5,256.5C 457.752,256.598 457.086,255.598 458.5,253.5 Z"/></g>
</svg>
